<svg width="75" height="50" viewBox="0 0 75 50" fill="none" xmlns="http://www.w3.org/2000/svg">
<path d="M55.8703 29.8605C53.9372 28.9161 47.7994 25.6254 42.8307 22.5676C37.4224 19.2395 29.3793 15.0792 29.3793 15.0792L27.1605 14.1085C21.7675 11.4127 17.0886 11.0937 15.5438 11.0618C15.4204 11.0591 15.3164 11.0577 15.2345 11.0577C13.9684 11.0577 10.2381 11.4765 7.61439 12.6899C10.4059 11.2033 16.1442 8.08033 19.0314 6.2623C22.7757 3.90484 28.4613 0.854004 33.7309 0.854004C35.9788 0.854004 38.457 1.31302 40.5828 1.86494C42.6754 2.40854 44.7056 3.16848 46.6484 4.12117C50.8295 6.17217 57.7119 9.30343 61.3271 10.0758C65.0547 10.8705 68.0404 12.6164 69.3855 13.6356C69.5616 13.7687 69.7225 13.9227 69.8611 14.0932L69.8556 14.0974C73.0326 19.4655 61.9997 26.7639 55.8703 29.8605Z" fill="#0649E7"/>
<path d="M17.6975 37.1584C17.5713 37.1321 17.5061 37.1168 17.5061 37.1168C17.4215 37.0974 17.33 37.0766 17.2343 37.0544C15.6118 36.6814 12.525 35.9658 11.3199 35.547C9.37843 34.3239 7.01542 32.6931 4.80495 30.7863C3.33639 29.5202 2.11328 27.9879 1.26459 26.2434C0.547648 24.7679 0.108051 23.1939 0.241178 20.4759C0.407587 17.0922 5.02544 13.9804 7.31357 12.8488C7.40925 12.7975 7.51049 12.7448 7.61449 12.6893C10.2382 11.4759 13.9685 11.0571 15.2346 11.0571C15.3165 11.0571 15.4205 11.0585 15.5439 11.0613C15.1293 11.6271 13.6302 13.7862 13.1545 16.0494C12.5998 18.6842 12.1838 19.7936 12.3225 22.1511C12.4612 24.5085 12.4612 30.7489 17.3148 36.7119L17.6975 37.1584Z" fill="#0649E7"/>
<path d="M74.0157 39.1286C73.5082 40.9314 69.7168 45.2303 58.6229 48.0038C51.2731 49.8412 43.861 49.4668 38.4665 48.5751C35.1217 48.0218 31.8823 46.9582 28.8439 45.4536C25.9761 44.0322 22.6785 42.3542 21.6661 41.6941C19.8634 40.5154 16.6739 38.5739 15.2178 37.8112C14.6145 37.495 13.1543 36.7032 11.3196 35.5481C12.5247 35.9669 15.6116 36.6824 17.2341 37.0554C17.3298 37.0776 17.4213 37.0984 17.5059 37.1179C17.5059 37.1179 17.5711 37.1331 17.6973 37.1608C19.5652 37.5519 34.9414 40.3115 55.6414 29.9761C55.7162 29.9387 55.7925 29.8999 55.8702 29.861C61.9996 26.7644 73.0325 19.466 69.8555 14.0979L69.861 14.0938C69.9484 14.2005 70.0274 14.3129 70.0968 14.4321C70.3089 14.7941 70.5447 15.2642 70.6875 15.6927C70.9094 16.3583 72.9992 31.5931 74.0157 39.1286Z" fill="#0649E7"/>
</svg>
